<?xml version="1.0" standalone="no"?>
<svg
  width="600"
  height="600"
  viewBox="0 0 600 600"
  xmlns="http://www.w3.org/2000/svg"
>
  <g transform="translate(300,300)">
    <path d="M118,-200.8C147.7,-164.5,163,-123,187.8,-81.9C212.6,-40.8,246.8,-0.2,250.9,42.6C254.9,85.4,228.7,130.5,191.6,157C154.6,183.5,106.6,191.6,63.5,194C20.5,196.4,-17.7,193.2,-57.8,186.2C-97.9,179.3,-140,168.5,-153.5,140.2C-167,111.8,-151.8,65.7,-154.3,24.4C-156.9,-17,-177.1,-53.6,-169.1,-79.8C-161.1,-106.1,-124.9,-122,-92,-156.8C-59.1,-191.6,-29.6,-245.3,7.3,-256.7C44.2,-268,88.3,-237.1,118,-200.8Z" fill="#3a3a3a" />
  </g>
</svg>
    