<?xml version="1.0" standalone="no"?>
<svg
  width="600"
  height="600"
  viewBox="0 0 600 600"
  xmlns="http://www.w3.org/2000/svg"
>
  <g transform="translate(300,300)">
    <path d="M108.6,-187.3C136.8,-150.8,153,-114,160.6,-78.8C168.2,-43.5,167.3,-9.8,153.3,15.4C139.3,40.6,112.4,57.3,96.1,92.3C79.8,127.4,74.3,180.7,50.6,200.6C27,220.4,-14.8,206.6,-43,182.1C-71.3,157.6,-85.9,122.4,-122.1,96.8C-158.4,71.2,-216.3,55.3,-236.4,24C-256.5,-7.4,-238.8,-54.2,-219.5,-101.9C-200.3,-149.7,-179.6,-198.5,-142.8,-231C-106,-263.6,-53,-279.8,-6.4,-269.8C40.2,-259.9,80.4,-223.7,108.6,-187.3Z" fill="#3a3a3a" />
  </g>
</svg>
    